<?xml version="1.0" encoding="UTF-8" standalone="no"?>
<!--Generator: Xara Designer (www.xara.com), SVG filter version: 6.0.0.4-->

<svg
   xmlns:dc="http://purl.org/dc/elements/1.1/"
   xmlns:cc="http://creativecommons.org/ns#"
   xmlns:rdf="http://www.w3.org/1999/02/22-rdf-syntax-ns#"
   xmlns:svg="http://www.w3.org/2000/svg"
   xmlns="http://www.w3.org/2000/svg"
   xmlns:sodipodi="http://sodipodi.sourceforge.net/DTD/sodipodi-0.dtd"
   xmlns:inkscape="http://www.inkscape.org/namespaces/inkscape"
   version="1.1"
   overflow="visible"
   width="380"
   height="380"
   viewBox="0 0 285 285"
   id="svg123"
   sodipodi:docname="UFONE-Logo-Icon-Art.svg"
   style="overflow:visible;fill-rule:evenodd;stroke-width:0.50099999;stroke-linejoin:bevel"
   inkscape:version="0.92.2 (5c3e80d, 2017-08-06)">
  <metadata
     id="metadata127">
    <rdf:RDF>
      <cc:Work
         rdf:about="">
        <dc:format>image/svg+xml</dc:format>
        <dc:type
           rdf:resource="http://purl.org/dc/dcmitype/StillImage" />
        <dc:title></dc:title>
      </cc:Work>
    </rdf:RDF>
  </metadata>
  <sodipodi:namedview
     pagecolor="#ffffff"
     bordercolor="#666666"
     borderopacity="1"
     objecttolerance="10"
     gridtolerance="10"
     guidetolerance="10"
     inkscape:pageopacity="0"
     inkscape:pageshadow="2"
     inkscape:window-width="1920"
     inkscape:window-height="1017"
     id="namedview125"
     showgrid="false"
     units="px"
     fit-margin-top="0"
     fit-margin-left="0"
     fit-margin-right="0"
     fit-margin-bottom="0"
     inkscape:zoom="0.89393939"
     inkscape:cx="687.55726"
     inkscape:cy="70.651052"
     inkscape:window-x="-8"
     inkscape:window-y="-8"
     inkscape:window-maximized="1"
     inkscape:current-layer="svg123" />
  <defs
     id="defs102" />
  <g
     id="Document"
     font-size="16"
     transform="matrix(1,0,0,-1,-166.25,-43.000004)"
     style="font-size:16px;font-family:'Times New Roman';fill:none;stroke:#000000">
    <g
       id="Spread"
       transform="translate(0,-792)">
      <g
         id="Layer 1">
        <g
           id="Group"
           style="stroke-linecap:round;stroke-linejoin:round">
          <path
             d="m 231.652,492.5 h 153.804 c 21.297,0.131 37.559,5.856 48.767,17.185 11.217,11.323 16.867,27.5 16.942,48.514 v 91.915 c -0.075,21.014 -5.725,37.191 -16.942,48.514 -11.208,11.329 -27.47,17.054 -48.767,17.185 H 231.652 c -21.146,-0.131 -37.307,-5.856 -48.495,-17.185 -11.172,-11.323 -16.806,-27.5 -16.907,-48.514 v -91.915 c 0.101,-21.014 5.735,-37.191 16.907,-48.514 11.188,-11.329 27.349,-17.054 48.495,-17.185 z m 141.986,40.507 H 243.777 c -10.245,0.03 -18.056,2.747 -23.444,8.129 -5.382,5.372 -8.083,13.198 -8.138,23.453 v 79.135 c 0.055,10.255 2.756,18.056 8.138,23.453 5.388,5.382 13.199,8.099 23.444,8.144 h 129.861 c 10.256,-0.045 18.077,-2.762 23.454,-8.144 5.382,-5.397 8.098,-13.198 8.129,-23.453 v -79.135 c -0.031,-10.255 -2.747,-18.081 -8.129,-23.453 -5.377,-5.382 -13.198,-8.099 -23.454,-8.129 z"
             stroke-miterlimit="79.8403193612775"
             id="path104"
             inkscape:connector-curvature="0"
             style="fill:#005454;fill-rule:nonzero;stroke:none;stroke-width:1.10399997;stroke-miterlimit:79.84031677;marker-start:none;marker-end:none" />
          <g
             id="Group_1"
             stroke-miterlimit="79.8403193612775"
             style="fill:#ff6319;stroke:#ff6319;stroke-width:25.74099922;stroke-miterlimit:79.84031677">
            <path
               d="M 236.863,604.613 H 382.745"
               id="path106"
               inkscape:connector-curvature="0"
               style="fill:none" />
            <path
               d="M 236.863,566 H 382.745"
               id="path108"
               inkscape:connector-curvature="0"
               style="fill:none" />
            <path
               d="M 236.863,643.23 H 382.745"
               id="path110"
               inkscape:connector-curvature="0"
               style="fill:none" />
          </g>
          <path
             d="M 235.744,604.446 H 381.616"
             stroke-miterlimit="79.8403193612775"
             id="path113"
             inkscape:connector-curvature="0"
             style="fill:none;stroke:#ff6319;stroke-width:25.74099922;stroke-miterlimit:79.84031677" />
          <path
             d="M 235.744,565.849 H 381.616"
             stroke-miterlimit="79.8403193612775"
             id="path115"
             inkscape:connector-curvature="0"
             style="fill:none;stroke:#ff6319;stroke-width:25.74099922;stroke-miterlimit:79.84031677" />
          <path
             d="M 235.744,643.069 H 381.616"
             stroke-miterlimit="79.8403193612775"
             id="path117"
             inkscape:connector-curvature="0"
             style="fill:none;stroke:#ff6319;stroke-width:25.74099922;stroke-miterlimit:79.84031677" />
        </g>
      </g>
    </g>
  </g>
</svg>
