<?xml version="1.0" encoding="UTF-8" standalone="no"?>
<!--Generator: Xara Designer (www.xara.com), SVG filter version: 6.0.0.4-->

<svg
   xmlns:dc="http://purl.org/dc/elements/1.1/"
   xmlns:cc="http://creativecommons.org/ns#"
   xmlns:rdf="http://www.w3.org/1999/02/22-rdf-syntax-ns#"
   xmlns:svg="http://www.w3.org/2000/svg"
   xmlns="http://www.w3.org/2000/svg"
   xmlns:sodipodi="http://sodipodi.sourceforge.net/DTD/sodipodi-0.dtd"
   xmlns:inkscape="http://www.inkscape.org/namespaces/inkscape"
   version="1.1"
   overflow="visible"
   width="299.90405pt"
   height="44.484127pt"
   viewBox="0 0 299.90405 44.484127"
   id="svg80"
   sodipodi:docname="UFONE-Logo-Art.svg"
   style="overflow:visible;fill-rule:evenodd;stroke-width:0.50099999;stroke-linejoin:bevel"
   inkscape:version="0.92.2 (5c3e80d, 2017-08-06)">
  <metadata
     id="metadata84">
    <rdf:RDF>
      <cc:Work
         rdf:about="">
        <dc:format>image/svg+xml</dc:format>
        <dc:type
           rdf:resource="http://purl.org/dc/dcmitype/StillImage" />
        <dc:title></dc:title>
      </cc:Work>
    </rdf:RDF>
  </metadata>
  <sodipodi:namedview
     pagecolor="#ffffff"
     bordercolor="#666666"
     borderopacity="1"
     objecttolerance="10"
     gridtolerance="10"
     guidetolerance="10"
     inkscape:pageopacity="0"
     inkscape:pageshadow="2"
     inkscape:window-width="1920"
     inkscape:window-height="1017"
     id="namedview82"
     showgrid="false"
     inkscape:zoom="0.80492424"
     inkscape:cx="225.43936"
     inkscape:cy="-186.14356"
     inkscape:window-x="-8"
     inkscape:window-y="-8"
     inkscape:window-maximized="1"
     inkscape:current-layer="svg80"
     fit-margin-left="0"
     fit-margin-bottom="0"
     fit-margin-top="0"
     fit-margin-right="0" />
  <defs
     id="defs48" />
  <g
     id="Document"
     font-size="16"
     transform="matrix(1,0,0,-1,-150.89695,-66.552914)"
     style="font-size:16px;font-family:'Times New Roman';fill:none;stroke:#000000">
    <g
       id="Spread"
       transform="translate(0,-792)">
      <g
         id="Layer 1">
        <g
           id="Group"
           style="stroke-linecap:round;stroke-linejoin:round">
          <path
             d="m 222.198,698.525 h 37.036 c 1.392,0 2.089,0.695 2.089,2.087 v 3.861 c 0,1.392 -0.697,2.087 -2.089,2.087 h -37.036 v 4.493 c 0.007,2.035 0.546,3.586 1.614,4.652 1.068,1.068 2.619,1.607 4.654,1.616 h 35.832 c 0.697,0 1.218,0.171 1.568,0.514 0.347,0.341 0.521,0.845 0.521,1.51 v 3.924 c 0,1.392 -0.697,2.087 -2.089,2.087 h -38.175 c -4.229,-0.026 -7.453,-1.162 -9.679,-3.41 -2.224,-2.247 -3.345,-5.455 -3.362,-9.624 v -29.19 c 0,-1.392 0.697,-2.089 2.087,-2.089 h 5.003 c 0.667,0 1.171,0.174 1.512,0.522 0.341,0.349 0.512,0.87 0.514,1.567 z"
             stroke-miterlimit="79.8403193612775"
             id="path50"
             inkscape:connector-curvature="0"
             style="fill:#005454;fill-rule:nonzero;stroke:none;stroke-width:0.219;stroke-miterlimit:79.84031677;marker-start:none;marker-end:none" />
          <path
             d="m 405.913,699.281 h 37.798 c 0.664,0 1.168,0.176 1.509,0.523 0.343,0.348 0.515,0.871 0.515,1.568 v 3.67 c 0,0.697 -0.172,1.221 -0.515,1.568 -0.341,0.348 -0.845,0.521 -1.509,0.524 h -37.798 v 3.928 c 0.009,2.035 0.547,3.588 1.614,4.658 1.07,1.069 2.621,1.607 4.654,1.614 h 36.594 c 0.667,0.002 1.171,0.173 1.511,0.517 0.341,0.341 0.513,0.842 0.515,1.509 v 3.924 c -0.002,0.695 -0.174,1.216 -0.515,1.566 -0.34,0.347 -0.844,0.521 -1.511,0.521 h -38.998 c -4.196,-0.026 -7.404,-1.162 -9.625,-3.409 -2.217,-2.25 -3.334,-5.46 -3.355,-9.634 v -18.242 c 0.021,-4.174 1.138,-7.383 3.355,-9.633 2.221,-2.248 5.429,-3.384 9.625,-3.41 h 38.998 c 0.667,0 1.171,0.174 1.511,0.522 0.341,0.349 0.513,0.87 0.515,1.565 v 3.924 c -0.002,0.667 -0.174,1.169 -0.515,1.51 -0.34,0.343 -0.844,0.514 -1.511,0.517 h -36.594 c -2.033,0.006 -3.584,0.545 -4.654,1.613 -1.067,1.071 -1.605,2.623 -1.614,4.658 z"
             stroke-miterlimit="79.8403193612775"
             id="path52"
             inkscape:connector-curvature="0"
             style="fill:#005454;fill-rule:nonzero;stroke:none;stroke-width:0.219;stroke-miterlimit:79.84031677;marker-start:none;marker-end:none" />
          <g
             id="Group_1">
            <path
               d="m 284.236,681.043 h 30.52 c 4.226,0.026 7.453,1.162 9.677,3.41 2.226,2.247 3.347,5.457 3.362,9.627 v 18.239 c -0.015,4.17 -1.136,7.38 -3.362,9.627 -2.224,2.248 -5.451,3.384 -9.677,3.41 h -30.52 c -4.196,-0.026 -7.403,-1.162 -9.623,-3.41 -2.217,-2.247 -3.335,-5.457 -3.355,-9.627 V 694.08 c 0.02,-4.17 1.138,-7.38 3.355,-9.627 2.22,-2.248 5.427,-3.384 9.623,-3.41 z m 28.175,8.038 h -25.769 c -2.033,0.006 -3.583,0.545 -4.652,1.613 -1.068,1.066 -1.604,2.619 -1.615,4.654 v 15.703 c 0.011,2.035 0.547,3.583 1.615,4.654 1.069,1.068 2.619,1.607 4.652,1.616 h 25.769 c 2.035,-0.009 3.587,-0.548 4.654,-1.616 1.068,-1.071 1.607,-2.619 1.613,-4.654 v -15.703 c -0.006,-2.035 -0.545,-3.588 -1.613,-4.654 -1.067,-1.068 -2.619,-1.607 -4.654,-1.613 z"
               stroke-miterlimit="79.8403193612775"
               id="path54"
               inkscape:connector-curvature="0"
               style="fill:#005454;fill-rule:nonzero;stroke:none;stroke-width:0.219;stroke-miterlimit:79.84031677;marker-start:none;marker-end:none" />
            <g
               id="Group_2"
               stroke-miterlimit="79.8403193612775"
               style="fill:#ff6319;stroke:#ff6319;stroke-width:5.1079998;stroke-miterlimit:79.84031677">
              <path
                 d="m 285.27,703.29 h 28.948"
                 id="path56"
                 inkscape:connector-curvature="0"
                 style="fill:none" />
              <path
                 d="m 285.27,695.628 h 28.948"
                 id="path58"
                 inkscape:connector-curvature="0"
                 style="fill:none" />
              <path
                 d="m 285.27,710.953 h 28.948"
                 id="path60"
                 inkscape:connector-curvature="0"
                 style="fill:none" />
            </g>
            <path
               d="m 285.048,703.257 h 28.946"
               stroke-miterlimit="79.8403193612775"
               id="path63"
               inkscape:connector-curvature="0"
               style="fill:none;stroke:#ff6319;stroke-width:5.1079998;stroke-miterlimit:79.84031677" />
            <path
               d="m 285.048,695.598 h 28.946"
               stroke-miterlimit="79.8403193612775"
               id="path65"
               inkscape:connector-curvature="0"
               style="fill:none;stroke:#ff6319;stroke-width:5.1079998;stroke-miterlimit:79.84031677" />
            <path
               d="m 285.048,710.921 h 28.946"
               stroke-miterlimit="79.8403193612775"
               id="path67"
               inkscape:connector-curvature="0"
               style="fill:none;stroke:#ff6319;stroke-width:5.1079998;stroke-miterlimit:79.84031677" />
          </g>
          <g
             id="Group_3"
             stroke-miterlimit="79.8403193612775"
             style="fill:#005454;fill-rule:nonzero;stroke:none;stroke-width:1.58500004;stroke-miterlimit:79.84031677">
            <path
               d="m 334.814,722.911 -0.111,-39.737 c 0,-1.392 0.699,-2.092 2.089,-2.092 h 5.003 c 0.669,0 1.171,0.174 1.514,0.522 0.341,0.349 0.51,0.873 0.51,1.57 v 27.927 c 0.009,2.035 0.548,3.583 1.62,4.654 1.067,1.068 2.619,1.607 4.654,1.616 h 24.258 c 2.037,-0.009 3.587,-0.548 4.656,-1.616 1.068,-1.071 1.607,-2.619 1.617,-4.654 v -27.927 c 0,-1.392 0.693,-2.092 2.087,-2.092 h 5.004 c 1.392,0 2.089,0.7 2.089,2.092 v 29.193 c -0.02,4.172 -1.153,7.382 -3.39,9.631 -2.237,2.248 -5.455,3.384 -9.657,3.41 l -39.813,-0.163 c -1.327,0 -2.13,-0.925 -2.13,-2.334 z"
               id="path70"
               inkscape:connector-curvature="0"
               style="marker-start:none;marker-end:none" />
          </g>
          <g
             id="Group_4"
             stroke-miterlimit="79.8403193612775"
             style="fill:#005454;fill-rule:nonzero;stroke:none;stroke-width:1.58500004;stroke-miterlimit:79.84031677">
            <path
               d="m 205.816,683.284 0.364,39.737 c 0.009,1.39 -0.686,2.096 -2.076,2.105 l -5.003,0.03 c -0.669,0.004 -1.171,-0.165 -1.516,-0.51 -0.343,-0.348 -0.517,-0.871 -0.521,-1.568 l -0.176,-27.928 c -0.022,-2.034 -0.571,-3.579 -1.65,-4.643 -1.071,-1.062 -2.628,-1.589 -4.665,-1.585 l -24.255,0.152 c -2.037,0.022 -3.581,0.571 -4.645,1.646 -1.062,1.077 -1.592,2.63 -1.59,4.665 l 0.178,27.925 c 0.009,1.392 -0.68,2.096 -2.074,2.104 l -5.003,0.033 c -1.39,0.009 -2.094,-0.686 -2.103,-2.078 l -0.184,-29.194 c -0.009,-4.171 1.105,-7.388 3.329,-9.651 2.224,-2.262 5.433,-3.418 9.636,-3.472 l 39.81,-0.089 c 1.329,-0.007 2.135,0.912 2.144,2.321 z"
               id="path73"
               inkscape:connector-curvature="0"
               style="marker-start:none;marker-end:none" />
          </g>
        </g>
      </g>
    </g>
  </g>
</svg>
