<?xml version="1.0" standalone="no"?>
<!DOCTYPE svg PUBLIC "-//W3C//DTD SVG 1.1//EN" "http://www.w3.org/Graphics/SVG/1.1/DTD/svg11.dtd">
<!--Generator: Xara Designer (www.xara.com), SVG filter version: 6.0.0.4-->
<svg stroke-width="0.501" stroke-linejoin="bevel" fill-rule="evenodd" xmlns:xlink="http://www.w3.org/1999/xlink" xmlns="http://www.w3.org/2000/svg" version="1.1" overflow="visible" width="612pt" height="792pt" viewBox="0 0 612 792">
 <defs>
	</defs>
 <g id="Document" fill="none" stroke="black" font-family="Times New Roman" font-size="16" transform="scale(1 -1)">
  <g id="Spread" transform="translate(0 -792)">
   <g id="Layer 1">
    <g id="Group" stroke-linejoin="round" stroke-linecap="round">
     <path d="M 216.051,688.062 L 253.087,688.062 C 254.479,688.062 255.176,688.757 255.176,690.149 L 255.176,694.01 C 255.176,695.402 254.479,696.097 253.087,696.097 L 216.051,696.097 L 216.051,700.59 C 216.058,702.625 216.597,704.176 217.665,705.242 C 218.733,706.31 220.284,706.849 222.319,706.858 L 258.151,706.858 C 258.848,706.858 259.369,707.029 259.719,707.372 C 260.066,707.713 260.24,708.217 260.24,708.882 L 260.24,712.806 C 260.24,714.198 259.543,714.893 258.151,714.893 L 219.976,714.893 C 215.747,714.867 212.523,713.731 210.297,711.483 C 208.073,709.236 206.952,706.028 206.935,701.859 L 206.935,672.669 C 206.935,671.277 207.632,670.58 209.022,670.58 L 214.025,670.58 C 214.692,670.58 215.196,670.754 215.537,671.102 C 215.878,671.451 216.049,671.972 216.051,672.669 L 216.051,688.062 Z" fill="#ffffff" fill-rule="nonzero" stroke="none" stroke-width="0.219" marker-start="none" marker-end="none" stroke-miterlimit="79.8403193612775"/>
     <path d="M 278.089,670.58 L 308.609,670.58 C 312.835,670.606 316.062,671.742 318.286,673.99 C 320.512,676.237 321.633,679.447 321.648,683.617 L 321.648,701.856 C 321.633,706.026 320.512,709.236 318.286,711.483 C 316.062,713.731 312.835,714.867 308.609,714.893 L 278.089,714.893 C 273.893,714.867 270.686,713.731 268.466,711.483 C 266.249,709.236 265.131,706.026 265.111,701.856 L 265.111,683.617 C 265.131,679.447 266.249,676.237 268.466,673.99 C 270.686,671.742 273.893,670.606 278.089,670.58 Z M 306.264,678.618 L 280.495,678.618 C 278.462,678.624 276.912,679.163 275.843,680.231 C 274.775,681.297 274.239,682.85 274.228,684.885 L 274.228,700.588 C 274.239,702.623 274.775,704.171 275.843,705.242 C 276.912,706.31 278.462,706.849 280.495,706.858 L 306.264,706.858 C 308.299,706.849 309.851,706.31 310.918,705.242 C 311.986,704.171 312.525,702.623 312.531,700.588 L 312.531,684.885 C 312.525,682.85 311.986,681.297 310.918,680.231 C 309.851,679.163 308.299,678.624 306.264,678.618 Z" fill="#ffffff" fill-rule="nonzero" stroke="none" stroke-width="0.219" marker-start="none" marker-end="none" stroke-miterlimit="79.8403193612775"/>
     <path d="M 399.766,688.818 L 437.564,688.818 C 438.228,688.818 438.732,688.994 439.073,689.341 C 439.416,689.689 439.588,690.212 439.588,690.909 L 439.588,694.579 C 439.588,695.276 439.416,695.8 439.073,696.147 C 438.732,696.495 438.228,696.668 437.564,696.671 L 399.766,696.671 L 399.766,700.599 C 399.775,702.634 400.313,704.187 401.38,705.257 C 402.45,706.326 404.001,706.864 406.034,706.871 L 442.628,706.871 C 443.295,706.873 443.799,707.044 444.139,707.388 C 444.48,707.729 444.652,708.23 444.654,708.897 L 444.654,712.821 C 444.652,713.516 444.48,714.037 444.139,714.387 C 443.799,714.734 443.295,714.908 442.628,714.908 L 403.63,714.908 C 399.434,714.882 396.226,713.746 394.005,711.499 C 391.788,709.249 390.671,706.039 390.65,701.865 L 390.65,683.623 C 390.671,679.449 391.788,676.24 394.005,673.99 C 396.226,671.742 399.434,670.606 403.63,670.58 L 442.628,670.58 C 443.295,670.58 443.799,670.754 444.139,671.102 C 444.48,671.451 444.652,671.972 444.654,672.667 L 444.654,676.591 C 444.652,677.258 444.48,677.76 444.139,678.101 C 443.799,678.444 443.295,678.615 442.628,678.618 L 406.034,678.618 C 404.001,678.624 402.45,679.163 401.38,680.231 C 400.313,681.302 399.775,682.854 399.766,684.889 L 399.766,688.818 Z" fill="#ffffff" fill-rule="nonzero" stroke="none" stroke-width="0.219" marker-start="none" marker-end="none" stroke-miterlimit="79.8403193612775"/>
     <g id="Group_1" stroke="#ff6319" stroke-width="5.108" fill="#ff6319" stroke-miterlimit="79.8403193612775">
      <path d="M 279.123,692.827 L 308.071,692.827" fill="none"/>
      <path d="M 279.123,685.165 L 308.071,685.165" fill="none"/>
      <path d="M 279.123,700.49 L 308.071,700.49" fill="none"/>
     </g>
     <path d="M 278.901,692.794 L 307.847,692.794" fill="none" stroke="#ff6319" stroke-width="5.108" stroke-miterlimit="79.8403193612775"/>
     <path d="M 278.901,685.135 L 307.847,685.135" fill="none" stroke="#ff6319" stroke-width="5.108" stroke-miterlimit="79.8403193612775"/>
     <path d="M 278.901,700.458 L 307.847,700.458" fill="none" stroke="#ff6319" stroke-width="5.108" stroke-miterlimit="79.8403193612775"/>
     <g id="Group_2" fill="#ffffff" fill-rule="nonzero" stroke="none" stroke-width="1.585" stroke-miterlimit="79.8403193612775">
      <path d="M 328.667,712.448 L 328.556,672.711 C 328.556,671.319 329.255,670.619 330.645,670.619 L 335.648,670.619 C 336.317,670.619 336.819,670.793 337.162,671.141 C 337.503,671.49 337.672,672.014 337.672,672.711 L 337.672,700.638 C 337.681,702.673 338.22,704.221 339.292,705.292 C 340.359,706.36 341.911,706.899 343.946,706.908 L 368.204,706.908 C 370.241,706.899 371.791,706.36 372.86,705.292 C 373.928,704.221 374.467,702.673 374.477,700.638 L 374.477,672.711 C 374.477,671.319 375.17,670.619 376.564,670.619 L 381.568,670.619 C 382.96,670.619 383.657,671.319 383.657,672.711 L 383.657,701.904 C 383.637,706.076 382.504,709.286 380.267,711.535 C 378.03,713.783 374.812,714.919 370.61,714.945 L 330.797,714.782 C 329.47,714.782 328.667,713.857 328.667,712.448 Z" marker-start="none" marker-end="none"/>
     </g>
     <g id="Group_3" fill="#ffffff" fill-rule="nonzero" stroke="none" stroke-width="1.585" stroke-miterlimit="79.8403193612775">
      <path d="M 199.669,672.821 L 200.033,712.558 C 200.042,713.948 199.347,714.654 197.957,714.663 L 192.954,714.693 C 192.285,714.697 191.783,714.528 191.438,714.183 C 191.095,713.835 190.921,713.312 190.917,712.615 L 190.741,684.687 C 190.719,682.653 190.17,681.108 189.091,680.044 C 188.02,678.982 186.463,678.455 184.426,678.459 L 160.171,678.611 C 158.134,678.633 156.59,679.182 155.526,680.257 C 154.464,681.334 153.934,682.887 153.936,684.922 L 154.114,712.847 C 154.123,714.239 153.434,714.943 152.04,714.951 L 147.037,714.984 C 145.647,714.993 144.943,714.298 144.934,712.906 L 144.75,683.712 C 144.741,679.541 145.855,676.324 148.079,674.061 C 150.303,671.799 153.512,670.643 157.715,670.589 L 197.525,670.5 C 198.854,670.493 199.66,671.412 199.669,672.821 Z" marker-start="none" marker-end="none"/>
     </g>
    </g>
   </g>
  </g>
 </g>
</svg>
